<svg id="eugHl0xk1a81" xmlns="http://www.w3.org/2000/svg" xmlns:xlink="http://www.w3.org/1999/xlink" viewBox="0 0 204 204" shape-rendering="geometricPrecision" text-rendering="geometricPrecision" project-id="604eb9d133ae4d8ebef5eef9c59050cb" export-id="0b3272ca1daf476e91dbabcbe712f3da" cached="false"><defs><linearGradient id="eugHl0xk1a82-fill" x1="-12.4348" y1="91.2145" x2="228.124" y2="92.098" spreadMethod="pad" gradientUnits="userSpaceOnUse" gradientTransform="translate(0 0)"><stop id="eugHl0xk1a82-fill-0" offset="0%" stop-color="#f4a300"/><stop id="eugHl0xk1a82-fill-1" offset="100%" stop-color="#f0d58c"/></linearGradient><radialGradient id="eugHl0xk1a89-fill" cx="0" cy="0" r="1" spreadMethod="pad" gradientUnits="userSpaceOnUse" gradientTransform="matrix(363.058 0 0 -363.058 177.52 256.307)"><stop id="eugHl0xk1a89-fill-0" offset="0%" stop-color="#fff"/><stop id="eugHl0xk1a89-fill-1" offset="30%" stop-color="#fff"/><stop id="eugHl0xk1a89-fill-2" offset="33%" stop-color="#fff"/><stop id="eugHl0xk1a89-fill-3" offset="73%" stop-color="#fff"/><stop id="eugHl0xk1a89-fill-4" offset="75%" stop-color="#fff"/><stop id="eugHl0xk1a89-fill-5" offset="100%" stop-color="#fff"/></radialGradient></defs><path d="M187.639,69.9021c5.453-2.0435,11.587.7122,13.057,6.3463c5.542,21.2379,4.106,43.8026-4.26,64.2976-9.699,23.764-28.001,42.997-51.254,53.863-23.254,10.866-49.7487,12.566-74.1999,4.76-24.4512-7.805-45.061-24.541-57.7179-46.87s-16.43038-48.609-10.5677-73.5974C8.55918,53.7134,23.627,31.854,44.8941,17.4842s47.17-20.1936,72.5409-16.30956c21.882,3.3498,41.98,13.70806,57.356,29.37196c4.078,4.1554,3.292,10.8339-1.262,14.4624-4.554,3.6284-11.144,2.8182-15.334-1.2258-11.983-11.5677-27.318-19.219-43.951-21.7653-20.1259-3.0811-40.6739,1.5387-57.5446,12.9379C39.8288,46.355,27.8758,63.6955,23.2251,83.518c-4.6507,19.822-1.6572,40.67,8.3831,58.383c10.0404,17.713,26.3897,30.989,45.7861,37.181c19.3965,6.192,40.4147,4.843,58.8607-3.777c18.446-8.619,32.964-23.876,40.659-42.727c6.359-15.579,7.67-32.6663,3.901-48.89-1.318-5.6716,1.372-11.7423,6.824-13.7859Z" fill="url(#eugHl0xk1a82-fill)"/><g transform="matrix(.222467 0 0-.222467 37.929389 138.039679)"><g><g clip-path="url(#eugHl0xk1a810)"><g><g><g><path d="M11.52,162C11.52,81.677,135.307,16.561,288,16.561v0c152.693,0,276.481,65.116,276.481,145.439v0c0,80.322-123.788,145.439-276.481,145.439v0C135.307,307.439,11.52,242.322,11.52,162" fill="url(#eugHl0xk1a89-fill)"/></g></g></g><clipPath id="eugHl0xk1a810"><path d="M11.52,162C11.52,81.677,135.307,16.561,288,16.561v0c152.693,0,276.481,65.116,276.481,145.439v0c0,80.322-123.788,145.439-276.481,145.439v0C135.307,307.439,11.52,242.322,11.52,162"/></clipPath></g></g><g><g clip-path="url(#eugHl0xk1a814)"><clipPath id="eugHl0xk1a814"><path d="M0,324h576v-324L0,0v324Z"/></clipPath></g></g><g><g clip-path="url(#eugHl0xk1a831)"><g><g transform="translate(161.734 145.307)"><path d="M0,0C12.065,0,21.072,2.225,26.771,6.611c5.638,4.341,9.532,11.862,11.573,22.353c1.903,9.806,1.178,16.653-2.154,20.348C32.783,53.086,25.417,55,14.297,55h-19.281L-15.673,0L0,0Zm-63.063-67.75c-.895,0-1.745.4-2.314,1.092-.57.691-.801,1.601-.63,2.48L-37.679,81.573c.274,1.409,1.509,2.427,2.945,2.427h61.054c19.188,0,33.47-5.21,42.447-15.487c9.025-10.331,11.812-24.772,8.283-42.921-1.436-7.394-3.906-14.261-7.341-20.409-3.439-6.155-7.984-11.85-13.511-16.93-6.616-6.192-14.104-10.682-22.236-13.324C25.959,-27.678,15.681,-29,3.414,-29h-24.722l-7.06-36.322c-.274-1.41-1.508-2.428-2.944-2.428h-31.751Z" fill="#3c3c3c"/></g><g transform="translate(159.224 197.307)"><path d="M0,0h16.808c13.421,0,18.083-2.945,19.667-4.7c2.628-2.914,3.124-9.058,1.435-17.767-1.898-9.75-5.416-16.663-10.458-20.545C22.29,-46.986,13.898,-49,2.511,-49h-12.034L0,0ZM28.831,35h-61.055c-2.872,0-5.341-2.036-5.889-4.855l-28.328-145.751c-.342-1.759.12-3.578,1.259-4.961c1.14-1.383,2.838-2.183,4.63-2.183h31.75c2.873,0,5.342,2.036,5.89,4.855L-16.324,-84h22.249c12.582,0,23.174,1.372,31.479,4.077c8.541,2.775,16.399,7.48,23.354,13.984c5.752,5.292,10.49,11.232,14.08,17.657c3.591,6.427,6.171,13.594,7.668,21.302c3.715,19.104.697,34.402-8.969,45.466C63.965,29.444,48.923,35,28.831,35m-45.633-90h19.313c12.801,0,22.336,2.411,28.601,7.234c6.266,4.824,10.492,12.875,12.688,24.157c2.101,10.832,1.144,18.476-2.871,22.929C36.909,3.773,28.87,6,16.808,6h-21.754l-11.856-61M28.831,29c18.367,0,31.766-4.82,40.188-14.461c8.421-9.641,10.957-23.098,7.597-40.375-1.383-7.117-3.722-13.624-7.015-19.519-3.297-5.899-7.602-11.293-12.922-16.184-6.34-5.933-13.383-10.161-21.133-12.679C27.796,-76.743,17.925,-78,5.925,-78h-27.196l-7.531-38.75h-31.75L-32.224,29h61.055" fill="#fff"/></g><g transform="translate(311.583 116.307)"><path d="M0,0c-.896,0-1.745.4-2.314,1.092-.571.691-.802,1.6-.631,2.48L9.586,68.061c1.192,6.133.898,10.535-.827,12.395C7.703,81.593,4.531,83.5,-4.848,83.5h-22.702L-43.305,2.428C-43.579,1.018,-44.814,0,-46.25,0h-31.5c-.896,0-1.745.4-2.315,1.092-.57.691-.801,1.601-.63,2.48l28.328,145.751c.274,1.409,1.509,2.427,2.945,2.427h31.5c.896,0,1.745-.4,2.315-1.091.57-.692.801-1.601.63-2.481L-21.813,113h24.422c18.605,0,31.221-3.28,38.569-10.028c7.49-6.884,9.827-17.891,6.947-32.719L34.945,2.428C34.671,1.018,33.437,0,32,0L0,0Z" fill="#3c3c3c"/></g><g transform="translate(293.661 271.057)"><path d="M0,0h-31.5c-2.873,0-5.342-2.036-5.89-4.855l-28.328-145.751c-.342-1.759.12-3.578,1.26-4.961s2.838-2.183,4.63-2.183h31.5c2.872,0,5.342,2.036,5.89,4.855L-7.155,-74.25h20.229c9.363,0,11.328-2,11.407-2.086.568-.611,1.315-3.441.082-9.781l-12.531-64.489c-.342-1.759.12-3.578,1.26-4.961s2.838-2.183,4.63-2.183h32c2.872,0,5.342,2.036,5.89,4.855L68.991,-85.07c3.093,15.921.447,27.864-7.861,35.5-7.928,7.281-21.208,10.82-40.599,10.82h-20.784L5.89,-7.145c.341,1.759-.12,3.579-1.26,4.961C3.49,-0.801,1.792,0,0,0m0-6l-7.531-38.75h28.062c17.657,0,29.836-3.082,36.539-9.238c6.703-6.16,8.711-16.141,6.032-29.938l-13.18-67.824h-32l12.531,64.488c1.426,7.336.902,12.34-1.574,15.008-2.477,2.668-7.746,4.004-15.805,4.004h-25.176l-16.226-83.5h-31.5L-31.5,-6L0,-6" fill="#fff"/></g><g transform="translate(409.55 145.307)"><path d="M0,0C12.065,0,21.072,2.225,26.771,6.611c5.638,4.34,9.532,11.861,11.574,22.353c1.903,9.806,1.178,16.653-2.155,20.348C32.783,53.086,25.417,55,14.297,55h-19.281L-15.673,0L0,0Zm-63.062-67.75c-.895,0-1.745.4-2.314,1.092-.57.691-.802,1.601-.631,2.48L-37.679,81.573c.275,1.409,1.509,2.427,2.946,2.427h61.053c19.189,0,33.47-5.21,42.448-15.487c9.025-10.33,11.811-24.771,8.283-42.921-1.438-7.394-3.907-14.261-7.342-20.409-3.439-6.155-7.984-11.85-13.511-16.93-6.616-6.192-14.104-10.682-22.236-13.324C25.959,-27.678,15.681,-29,3.414,-29h-24.723l-7.057-36.322c-.275-1.41-1.509-2.428-2.946-2.428h-31.75Z" fill="#3c3c3c"/></g><g transform="translate(407.039 197.307)"><path d="M0,0h16.808c13.421,0,18.083-2.945,19.667-4.7c2.629-2.914,3.125-9.058,1.435-17.766-1.898-9.751-5.417-16.664-10.458-20.546C22.29,-46.986,13.898,-49,2.511,-49h-12.033L0,0ZM28.831,35h-61.054c-2.872,0-5.341-2.036-5.889-4.855L-66.44,-115.606c-.342-1.759.12-3.578,1.259-4.961c1.14-1.383,2.838-2.183,4.63-2.183h31.75c2.872,0,5.342,2.036,5.89,4.855L-16.324,-84h22.249c12.582,0,23.174,1.372,31.479,4.077c8.541,2.775,16.401,7.481,23.356,13.986c5.752,5.291,10.488,11.23,14.078,17.655c3.591,6.427,6.171,13.594,7.668,21.302c3.715,19.105.697,34.403-8.969,45.467C63.965,29.444,48.924,35,28.831,35m-45.632-90h19.312c12.801,0,22.336,2.411,28.601,7.234c6.267,4.824,10.492,12.875,12.688,24.157c2.102,10.832,1.145,18.476-2.871,22.929C36.909,3.773,28.87,6,16.808,6h-21.754l-11.855-61M28.831,29c18.367,0,31.766-4.82,40.188-14.461s10.957-23.098,7.597-40.375c-1.383-7.117-3.722-13.624-7.015-19.519-3.297-5.899-7.602-11.293-12.922-16.184-6.34-5.933-13.383-10.161-21.133-12.679C27.796,-76.743,17.925,-78,5.925,-78h-27.196l-7.53-38.75h-31.75L-32.223,29h61.054" fill="#fff"/></g></g><clipPath id="eugHl0xk1a831"><path d="M0,324h576v-324L0,0v324Z"/></clipPath></g></g></g></svg>
