<svg id="e8t51miLbSX1" xmlns="http://www.w3.org/2000/svg" xmlns:xlink="http://www.w3.org/1999/xlink" viewBox="0 0 204 204" shape-rendering="geometricPrecision" text-rendering="geometricPrecision" project-id="604eb9d133ae4d8ebef5eef9c59050cb" export-id="e03df65d1dd14a7e8e128d10cd039b48" cached="false"><defs><linearGradient id="e8t51miLbSX2-fill" x1="-12.4348" y1="91.2145" x2="228.124" y2="92.098" spreadMethod="pad" gradientUnits="userSpaceOnUse" gradientTransform="translate(0 0)"><stop id="e8t51miLbSX2-fill-0" offset="0%" stop-color="#f4a300"/><stop id="e8t51miLbSX2-fill-1" offset="100%" stop-color="#f0d58c"/></linearGradient></defs><path d="M187.639,69.9021c5.453-2.0435,11.587.7122,13.057,6.3463c5.542,21.2379,4.106,43.8026-4.26,64.2976-9.699,23.764-28.001,42.997-51.254,53.863-23.254,10.866-49.7487,12.566-74.1999,4.76-24.4512-7.805-45.061-24.541-57.7179-46.87s-16.43038-48.609-10.5677-73.5974C8.55918,53.7134,23.627,31.854,44.8941,17.4842s47.17-20.1936,72.5409-16.30956c21.882,3.3498,41.98,13.70806,57.356,29.37196c4.078,4.1554,3.292,10.8339-1.262,14.4624-4.554,3.6284-11.144,2.8182-15.334-1.2258-11.983-11.5677-27.318-19.219-43.951-21.7653-20.1259-3.0811-40.6739,1.5387-57.5446,12.9379C39.8288,46.355,27.8758,63.6955,23.2251,83.518c-4.6507,19.822-1.6572,40.67,8.3831,58.383c10.0404,17.713,26.3897,30.989,45.7861,37.181c19.3965,6.192,40.4147,4.843,58.8607-3.777c18.446-8.619,32.964-23.876,40.659-42.727c6.359-15.579,7.67-32.6663,3.901-48.89-1.318-5.6716,1.372-11.7423,6.824-13.7859Z" fill="url(#e8t51miLbSX2-fill)"/><g transform="matrix(.1 0 0 0.1 52.095407 43.496704)"><path d="M593,82c.219,10.2797,3.202,20.654,3.911,31c1.398,20.422-2.008,42.241-10.198,60.996C558.597,238.384,496.353,281.992,444,325.565C421.371,344.399,399.369,364.37,381.627,388c-7.078,9.426-14.858,19.891-19.072,31-5.24,13.814-8.891,28.197-9.516,43-2.395,56.788,37.04,105.623,78.961,138.996c10.9,8.678,22.37,16.3,33.91,24.054c5.804,3.899,12.015,9.009,19.09,9.95-2.612-5.6-7.668-9.412-11.715-14-8.998-10.202-18.137-20.165-26.401-31-30.544-40.049-54.155-98.395-33.291-147.911c15.37-36.474,48.697-64.418,77.407-90.258c43.434-39.091,90.955-78.794,114.252-134.001c5.926-14.045,9.006-28.895,11.338-43.83c2.205-14.117,2.094-28.872-.181-43-2.935-18.23-10.99-33.4502-20.409-49h-3M535,663c8.467,3.612,18.859-7.619,25-12.754c20.057-16.772,39.612-38.594,44.536-65.246c4.819-26.082-8.853-47.748-21.453-69.427-17.602-30.287-35.782-61.509-25.105-97.573C570.14,376.919,605.44,345.523,639,321.152c10.483-7.613,21.608-15.063,33-21.221c4.874-2.636,13.099-5.396,15-10.931-8.76,1.294-17.1,5.384-25.17,8.866-9.295,4.01-18.627,7.714-27.869,11.92-10.659,4.85-21.304,9.93-31.533,15.642C556.211,351.237,507.14,391.703,498.795,447c-1.351,8.952-2.696,17.828-1.666,27c2.705,24.099,14.897,45.992,27.949,66c14.324,21.959,30.248,45.646,29.904,73-.163,12.886-5.279,24.694-11.406,35.714-2.703,4.862-6.417,9.178-8.576,14.286Z" fill="#fff"/><path d="M746,634c11.432,0,22.133-.557,33,3.618c6.072,2.333,11.99,5.534,17,9.708c25.282,21.061,24.993,53.727,12.044,81.674-13.926,30.055-41.18,51.426-68.044,69.333-10.386,6.924-21.465,14.839-33,19.667v2c5.684,2.602,11.299-.177,17-1.96c13.087-4.092,25.368-9.764,38-14.955c32.598-13.397,66.296-34.726,86.558-64.085c16.197-23.469,19.817-55.348,4.327-80.004C835.959,632.054,805.543,624.953,776,625c-8.244.013-26.683-.028-30,9m-26,63c-2.831-4.991-9.159-7.093-14-9.872-4.346-2.494-8.973-6.579-14-7.536-6.551-1.248-15.573,2.852-22,4.188-14.165,2.945-28.675,5.635-43,7.502-82.916,10.807-166.787,14.942-250,4-19.257-2.532-38.145-5.682-57-10.176-8.144-1.942-19.605-4.512-24.392-12.121-5.7-9.059,11.491-15.362,17.392-17.975c22.653-10.03,49.475-15.843,74-19.01-2.546-3.558-6.053-2.206-10-2.039-8.796.371-17.238,1.994-26,2.87-32.408,3.24-66.679,9.131-97,21.37-8.776,3.542-27.242,11.611-24.566,23.799c2.446,11.134,18.354,16.327,27.566,20c28.951,11.545,62.055,18.234,93,21.089c17.615,1.626,35.265,4.607,53,5.822c35.15,2.407,70.815,2.669,106,1.128c35.78-1.567,71.537-2.57,107-8.364c23.756-3.881,47.712-8.111,71-14.365c11.099-2.98,21.762-7.983,33-10.31M676,803v-2c-7.364-3.442-14.611-7.895-21.576-12.106-4.662-2.818-9.874-6.875-15.424-7.591-7.387-.952-16.782,3.623-24,5.186-16.655,3.606-34.074,6.146-51,8.225-28.447,3.493-57.33,4.286-86,4.286-20.264,0-40.86-.018-61-2.174-21.167-2.266-44.079-5.147-64-12.992-6.571-2.587-18.023-6.336-18.664-14.834-.551-7.315,7.674-10.53,10.664-16-19.846,3.739-41.279,6.766-59.285,16.478-7.555,4.074-17.461,11.669-12.536,21.522c4.562,9.127,16.007,13.812,24.821,17.573c23.09,9.852,47.487,13.08,71.91,17.682c22.695,4.277,45.988,5.773,69.09,6.784c26.275,1.151,51.708,1.851,78,.05c54.327-3.72,108.098-9.177,159-30.089M632,915v-2c-9.919-4.274-19.749-10.427-29-16.011-4.363-2.633-9.936-7.46-15.004-8.386-4.012-.732-9.017,1.761-12.996,2.48-11.147,2.015-22.731,4.9-34,5.824-37.759,3.095-75.194,3.774-113,1.003-14.482-1.062-31.695-4.384-45-10.205-4.382-1.917-11.503-5.348-12.339-10.72-.485-3.119,2.156-6.257,3.339-8.985-15.12.322-35.979,6.209-48,15.529-6.968,5.401-12.338,14.112-6.486,22.471c6.283,8.975,16.596,13.72,26.486,17.424c17.936,6.719,36.101,10.955,55,13.872c44.401,6.855,90.35,8.185,135,2.874c33.127-3.941,66.086-9.549,96-25.17m151,22c-5.228,12.114-15.939,19.777-27,26.189-23.798,13.796-50.765,18.681-77,25.391-13.11,3.354-26.683,4.569-40,6.745-36.827,6.015-73.755,8.085-111,9.715-51.82,2.27-103.398,2.67-155-3.76-13.651-1.694-27.514-2.519-41-5.396-31.567-6.732-65.037-9.209-94.91-22.59-10.104-4.525-24.229-9.177-28.862-20.294-4.135-9.923,4.69-19.44,11.773-25.195C237.749,913.383,258.355,909.16,279,901c-3.496-3.658-7.4-2.358-12-1.586-9.025,1.513-18.029,3.177-27,4.986-29.494,5.945-61.852,15.288-87,32.271-12.984,8.769-23.697,23.164-13.87,38.328c8.479,13.086,26.789,19.62,40.87,24.368c32.979,11.123,66.487,18.513,101,22.923c40.308,5.14,80.412,9.84,121,12.62c8.305.57,16.685-.23,25,.13c53.098,2.32,106.167.41,159-4.87c36.784-3.68,74.018-7.69,110-16.65c22.821-5.67,46.031-11.64,67.039-22.437c7.471-3.839,14.731-7.393,20.961-13.173c10.378-9.629,17.616-25.08,5.907-36.851-2.132-2.144-4.062-3.26-6.907-4.059m52,48c-6.733,9.479-18.171,16.09-28,22-24.943,15-52.23,24.73-80,32.97-75.943,22.54-156.13,29.11-235,31.04-31.57.78-63.43,2.06-95-.1-31.733-2.17-63.386-4.31-95-8.19-8.035-.99-16.005-2.05-24-3.31-6.242-.99-10.914-2.97-17-.41v2c48.837,13.73,99.508,20.63,150,24.09c97.002,6.65,194.909,2.84,290-18.42c35.26-7.89,71.932-18.45,103-37.48c17.062-10.45,31.391-23.66,34-44.19h-3Z" fill="#fff"/></g></svg>
