<svg id="eFMIOp7w6cd1" xmlns="http://www.w3.org/2000/svg" xmlns:xlink="http://www.w3.org/1999/xlink" viewBox="0 0 204 204" shape-rendering="geometricPrecision" text-rendering="geometricPrecision" project-id="604eb9d133ae4d8ebef5eef9c59050cb" export-id="73e8dcc5a2a84f46a0eea2c4ab1c3d89" cached="false"><defs><linearGradient id="eFMIOp7w6cd2-fill" x1="-12.4348" y1="91.2145" x2="228.124" y2="92.098" spreadMethod="pad" gradientUnits="userSpaceOnUse" gradientTransform="translate(0 0)"><stop id="eFMIOp7w6cd2-fill-0" offset="0%" stop-color="#f4a300"/><stop id="eFMIOp7w6cd2-fill-1" offset="100%" stop-color="#f0d58c"/></linearGradient></defs><path d="M187.639,69.9021c5.453-2.0435,11.587.7122,13.057,6.3463c5.542,21.2379,4.106,43.8026-4.26,64.2976-9.699,23.764-28.001,42.997-51.254,53.863-23.254,10.866-49.7487,12.566-74.1999,4.76-24.4512-7.805-45.061-24.541-57.7179-46.87s-16.43038-48.609-10.5677-73.5974C8.55918,53.7134,23.627,31.854,44.8941,17.4842s47.17-20.1936,72.5409-16.30956c21.882,3.3498,41.98,13.70806,57.356,29.37196c4.078,4.1554,3.292,10.8339-1.262,14.4624-4.554,3.6284-11.144,2.8182-15.334-1.2258-11.983-11.5677-27.318-19.219-43.951-21.7653-20.1259-3.0811-40.6739,1.5387-57.5446,12.9379C39.8288,46.355,27.8758,63.6955,23.2251,83.518c-4.6507,19.822-1.6572,40.67,8.3831,58.383c10.0404,17.713,26.3897,30.989,45.7861,37.181c19.3965,6.192,40.4147,4.843,58.8607-3.777c18.446-8.619,32.964-23.876,40.659-42.727c6.359-15.579,7.67-32.6663,3.901-48.89-1.318-5.6716,1.372-11.7423,6.824-13.7859Z" fill="url(#eFMIOp7w6cd2-fill)"/><g transform="matrix(1.338614 0 0 1.338614 55.023889 49.881221)"><path d="M62.634695,5C64.676625,5,66.5668,6.104957,67.5244,7.90118c.917503,1.720524.878564,3.747997-.101734,5.430866l-.0334.056594-8.592037,14.373046c-.97164,1.625281-2.725682,2.6397-4.600469,2.661327l-.061176.000353-9.811496-.000074l4.077997,9.336058.016258.027371.02508.044086c.96036,1.735799.93696,3.799546-.059003,5.509491l-.033559.056866L39.758823,59.77021c-.971628,1.62526-2.725658,2.639699-4.600339,2.661327l-.061173.000353-12.042443-.000073-8.657085,9.130879-.016379.01696c-.814652.828137-1.915349,1.290111-3.062945,1.290111-.286877,0-.57394-.029017-.857925-.086907-1.399872-.285787-2.562942-1.246352-3.122793-2.571172l-.015793-.03782L2.766133,59.715627l-.023965-.040082-.024892-.043176c-.004135-.007341-.00834-.014889-.012732-.02285-.96038-1.735661-.937118-3.79939.058719-5.509408l.033555-.056869l8.33339-13.940345L4.989751,26.045168l.112522-.057317-.001703-.00845c-.259819-1.293088-.050666-2.641592.61659-3.822675l.03685-.064255.034065-.057745L14.380163,7.661594C15.351916,6.036414,17.106033,5.021981,18.980589,5h43.654106ZM17.51952,62.322555l-9.12913-.000116l2.681306,6.202537.00659.016473c.044451.111119.116346.171918.223354.193917.095453.019693.172679-.00058.245721-.067142l.012768-.012428l5.959391-6.333241ZM43.616809,40.998492h-27.595162c-.030475,0-.060947.001045-.091367.003122l-.008358.000621l7.566374,17.307633h11.607647c.477134,0,.936764-.255437,1.198116-.665722l.020753-.033603l8.604465-14.381866c.256712-.429003.285096-.926757.081696-1.374682-.234494-.51651-.77883-.855503-1.384164-.855503Zm-30.4637,3.553991L6.32399,56.062932c-.271739.458137-.287488.99466-.04415,1.466827l.025811.048017.013753.023516.027564.045078.054615.081219.060969.079324.058331.066631.010119.010797.039445.039957.034276.032618c.214817.194999.480369.31397.77326.344538l.065794.005617.0381.001992.048275.000805h11.586965L13.153109,44.552483Zm-1.795752-14.10132l2.999272,6.878692.058427-.019919c.517953-.173328,1.059495-.267282,1.60697-.275837l.082163-.000642l26.748664-.000075-2.869925-6.582102-28.625571-.000117ZM62.558479,9.012571h-27.693614l7.568661,17.311376h11.603443c.478007,0,.938045-.255608,1.199532-.666128l.020763-.033623l8.605032-14.381588c.256595-.428895.284962-.926276.081797-1.37381-.229737-.50591-.756488-.841708-1.347013-.855768l-.038601-.000459Zm-31.933055,0h-11.53929c-.474535,0-.932202.254987-1.192553.664869l-.020674.033571L9.290488,24.092876c-.256225.42929-.284542.927792-.081368,1.376296.228848.505436.752763.840297,1.339745.854317l.038369.000458h27.58694L30.625424,9.012571Z" fill="#fff" fill-rule="evenodd"/></g></svg>
