<svg id="eoEWf4Kb0mL1" xmlns="http://www.w3.org/2000/svg" xmlns:xlink="http://www.w3.org/1999/xlink" viewBox="0 0 204 204" shape-rendering="geometricPrecision" text-rendering="geometricPrecision" project-id="604eb9d133ae4d8ebef5eef9c59050cb" export-id="82c304208bad4548adc1d370e3a9e7eb" cached="false"><defs><linearGradient id="eoEWf4Kb0mL2-fill" x1="-12.4348" y1="91.2145" x2="228.124" y2="92.098" spreadMethod="pad" gradientUnits="userSpaceOnUse" gradientTransform="translate(0 0)"><stop id="eoEWf4Kb0mL2-fill-0" offset="0%" stop-color="#f4a300"/><stop id="eoEWf4Kb0mL2-fill-1" offset="100%" stop-color="#f0d58c"/></linearGradient></defs><path d="M187.639,69.9021c5.453-2.0435,11.587.7122,13.057,6.3463c5.542,21.2379,4.106,43.8026-4.26,64.2976-9.699,23.764-28.001,42.997-51.254,53.863-23.254,10.866-49.7487,12.566-74.1999,4.76-24.4512-7.805-45.061-24.541-57.7179-46.87s-16.43038-48.609-10.5677-73.5974C8.55918,53.7134,23.627,31.854,44.8941,17.4842s47.17-20.1936,72.5409-16.30956c21.882,3.3498,41.98,13.70806,57.356,29.37196c4.078,4.1554,3.292,10.8339-1.262,14.4624-4.554,3.6284-11.144,2.8182-15.334-1.2258-11.983-11.5677-27.318-19.219-43.951-21.7653-20.1259-3.0811-40.6739,1.5387-57.5446,12.9379C39.8288,46.355,27.8758,63.6955,23.2251,83.518c-4.6507,19.822-1.6572,40.67,8.3831,58.383c10.0404,17.713,26.3897,30.989,45.7861,37.181c19.3965,6.192,40.4147,4.843,58.8607-3.777c18.446-8.619,32.964-23.876,40.659-42.727c6.359-15.579,7.67-32.6663,3.901-48.89-1.318-5.6716,1.372-11.7423,6.824-13.7859Z" fill="url(#eoEWf4Kb0mL2-fill)"/><g transform="matrix(.233014 0 0 0.233014 6.579727 32.923024)"><path d="M666.3,296.5c0-32.5-40.7-63.3-103.1-82.4c14.4-63.6,8-114.2-20.2-130.4-6.5-3.8-14.1-5.6-22.4-5.6v22.3c4.6,0,8.3.9,11.4,2.6c13.6,7.8,19.5,37.5,14.9,75.7-1.1,9.4-2.9,19.3-5.1,29.4-19.6-4.8-41-8.5-63.5-10.9-13.5-18.5-27.5-35.3-41.6-50c32.6-30.3,63.2-46.9,84-46.9v-22.3c-27.5,0-63.5,19.6-99.9,53.6-36.4-33.8-72.4-53.2-99.9-53.2v22.3c20.7,0,51.4,16.5,84,46.6-14,14.7-28,31.4-41.3,49.9-22.6,2.4-44,6.1-63.6,11-2.3-10-4-19.7-5.2-29-4.7-38.2,1.1-67.9,14.6-75.8c3-1.8,6.9-2.6,11.5-2.6v-22.3c-8.4,0-16,1.8-22.6,5.6-28.1,16.2-34.4,66.7-19.9,130.1-62.2,19.2-102.7,49.9-102.7,82.3c0,32.5,40.7,63.3,103.1,82.4-14.4,63.6-8,114.2,20.2,130.4c6.5,3.8,14.1,5.6,22.5,5.6c27.5,0,63.5-19.6,99.9-53.6c36.4,33.8,72.4,53.2,99.9,53.2c8.4,0,16-1.8,22.6-5.6c28.1-16.2,34.4-66.7,19.9-130.1c62-19.1,102.5-49.9,102.5-82.3ZM536.1,229.8c-3.7,12.9-8.3,26.2-13.5,39.5-4.1-8-8.4-16-13.1-24-4.6-8-9.5-15.8-14.4-23.4c14.2,2.1,27.9,4.7,41,7.9ZM490.3,336.3c-7.8,13.5-15.8,26.3-24.1,38.2-14.9,1.3-30,2-45.2,2-15.1,0-30.2-.7-45-1.9-8.3-11.9-16.4-24.6-24.2-38-7.6-13.1-14.5-26.4-20.8-39.8c6.2-13.4,13.2-26.8,20.7-39.9c7.8-13.5,15.8-26.3,24.1-38.2c14.9-1.3,30-2,45.2-2c15.1,0,30.2.7,45,1.9c8.3,11.9,16.4,24.6,24.2,38c7.6,13.1,14.5,26.4,20.8,39.8-6.3,13.4-13.2,26.8-20.7,39.9Zm32.3-13c5.4,13.4,10,26.8,13.8,39.8-13.1,3.2-26.9,5.9-41.2,8c4.9-7.7,9.8-15.6,14.4-23.7c4.6-8,8.9-16.1,13-24.1ZM421.2,430c-9.3-9.6-18.6-20.3-27.8-32c9,.4,18.2.7,27.5.7c9.4,0,18.7-.2,27.8-.7-9,11.7-18.3,22.4-27.5,32Zm-74.4-58.9c-14.2-2.1-27.9-4.7-41-7.9c3.7-12.9,8.3-26.2,13.5-39.5c4.1,8,8.4,16,13.1,24s9.5,15.8,14.4,23.4ZM420.7,163c9.3,9.6,18.6,20.3,27.8,32-9-.4-18.2-.7-27.5-.7-9.4,0-18.7.2-27.8.7c9-11.7,18.3-22.4,27.5-32Zm-74,58.9c-4.9,7.7-9.8,15.6-14.4,23.7-4.6,8-8.9,16-13,24-5.4-13.4-10-26.8-13.8-39.8c13.1-3.1,26.9-5.8,41.2-7.9ZM256.2,347.1c-35.4-15.1-58.3-34.9-58.3-50.6s22.9-35.6,58.3-50.6c8.6-3.7,18-7,27.7-10.1c5.7,19.6,13.2,40,22.5,60.9-9.2,20.8-16.6,41.1-22.2,60.6-9.9-3.1-19.3-6.5-28-10.2ZM310,490c-13.6-7.8-19.5-37.5-14.9-75.7c1.1-9.4,2.9-19.3,5.1-29.4c19.6,4.8,41,8.5,63.5,10.9c13.5,18.5,27.5,35.3,41.6,50-32.6,30.3-63.2,46.9-84,46.9-4.5-.1-8.3-1-11.3-2.7Zm237.2-76.2c4.7,38.2-1.1,67.9-14.6,75.8-3,1.8-6.9,2.6-11.5,2.6-20.7,0-51.4-16.5-84-46.6c14-14.7,28-31.4,41.3-49.9c22.6-2.4,44-6.1,63.6-11c2.3,10.1,4.1,19.8,5.2,29.1Zm38.5-66.7c-8.6,3.7-18,7-27.7,10.1-5.7-19.6-13.2-40-22.5-60.9c9.2-20.8,16.6-41.1,22.2-60.6c9.9,3.1,19.3,6.5,28.1,10.2c35.4,15.1,58.3,34.9,58.3,50.6-.1,15.7-23,35.6-58.4,50.6Z" fill="#fff"/><circle r="45.7" transform="translate(420.9 296.5)" fill="#fff"/></g></svg>
