<svg id="eqPNA6Dt3TU1" xmlns="http://www.w3.org/2000/svg" xmlns:xlink="http://www.w3.org/1999/xlink" viewBox="0 0 204 204" shape-rendering="geometricPrecision" text-rendering="geometricPrecision" project-id="29997309a0e64b98aad5e658470bcdfc" export-id="872f32e62f0d472790707de4ad9d4bc9" cached="false"><defs><linearGradient id="eqPNA6Dt3TU6-fill" x1="-12.4348" y1="91.2145" x2="228.124" y2="92.098" spreadMethod="pad" gradientUnits="userSpaceOnUse" gradientTransform="translate(0 0)"><stop id="eqPNA6Dt3TU6-fill-0" offset="0%" stop-color="#f4a300"/><stop id="eqPNA6Dt3TU6-fill-1" offset="100%" stop-color="#f0d58c"/></linearGradient></defs><g transform="matrix(.370221 0 0 0.370221 54.6891 48.8265)"><path d="M255.569,84.452376c-.002-4.83-1.035-9.098-3.124-12.761-2.052-3.602-5.125-6.621-9.247-9.008-34.025-19.619-68.083-39.178-102.097-58.817-9.17-5.294-18.061-5.101-27.163.269-13.543,7.987-81.348,46.834-101.553,58.537-8.321,4.817-12.37,12.189-12.372,21.771-.013,39.455,0,78.909-.013,118.365c0,4.724.991,8.909,2.988,12.517c2.053,3.711,5.169,6.813,9.386,9.254c20.206,11.703,88.02,50.547,101.56,58.536c9.106,5.373,17.997,5.565,27.17.269c34.015-19.64,68.075-39.198,102.105-58.817c4.217-2.44,7.333-5.544,9.386-9.252c1.994-3.608,2.987-7.793,2.987-12.518c0,0,0-78.889-.013-118.345" fill="#fff"/><path d="M201.892326,116.294008v13.473684h13.473684v-13.473684h6.736842v13.473684h13.473685v6.736842h-13.473685v13.473684h13.473685v6.736842h-13.473685v13.473684h-6.736842v-13.473684h-13.473684v13.473684h-6.736842v-13.473684h-13.473684v-6.736842h13.473684v-13.473684h-13.473684v-6.736842h13.473684v-13.473684h6.736842Zm13.473684,20.210526h-13.473684v13.473684h13.473684v-13.473684Z" fill="#fff"/><path d="M128.456752,48.625876c35.143771,0,65.827133,19.086298,82.26181,47.456068l-.16037-.273068-41.348577,23.808283c-8.146656-13.793605-23.081479-23.102087-40.213232-23.293787l-.539631-.003018c-26.125574,0-47.306081,21.179389-47.306081,47.304962c0,8.543615,2.277774,16.552204,6.238976,23.469476c8.154098,14.235253,23.482907,23.836606,41.067105,23.836606c17.69277,0,33.108884-9.723357,41.221568-24.110835l-.197128.345313l41.286486,23.918037c-16.254398,28.129557-46.517408,47.156948-81.252701,47.536189l-1.058225.005774c-35.254582,0-66.025249-19.203824-82.418512-47.72358-8.002993-13.922969-12.582048-30.064389-12.582048-47.27698c0-52.466052,42.532268-94.99944,95.00056-94.99944Z" fill="#fff"/></g><path d="M187.639,69.9021c5.453-2.0435,11.587.7122,13.057,6.3463c5.542,21.2379,4.106,43.8026-4.26,64.2976-9.699,23.764-28.001,42.997-51.254,53.863-23.254,10.866-49.7487,12.566-74.1999,4.76-24.4512-7.805-45.061-24.541-57.7179-46.87s-16.43038-48.609-10.5677-73.5974C8.55918,53.7134,23.627,31.854,44.8941,17.4842s47.17-20.1936,72.5409-16.30956c21.882,3.3498,41.98,13.70806,57.356,29.37196c4.078,4.1554,3.292,10.8339-1.262,14.4624-4.554,3.6284-11.144,2.8182-15.334-1.2258-11.983-11.5677-27.318-19.219-43.951-21.7653-20.1259-3.0811-40.6739,1.5387-57.5446,12.9379C39.8288,46.355,27.8758,63.6955,23.2251,83.518c-4.6507,19.822-1.6572,40.67,8.3831,58.383c10.0404,17.713,26.3897,30.989,45.7861,37.181c19.3965,6.192,40.4147,4.843,58.8607-3.777c18.446-8.619,32.964-23.876,40.659-42.727c6.359-15.579,7.67-32.6663,3.901-48.89-1.318-5.6716,1.372-11.7423,6.824-13.7859Z" fill="url(#eqPNA6Dt3TU6-fill)"/><g transform="matrix(.309222 0 0 0.309222 54.689034 48.759857)"><path d="M302.107,258.262c2.401-4.159,3.893-8.845,3.893-13.053v-146.069c0-4.208-1.49-8.893-3.892-13.052L153,172.175l149.107,86.087Z" fill="#fff"/><path d="M166.25,341.193l126.5-73.034c3.644-2.104,6.956-5.737,9.357-9.897L153,172.175L3.893,258.263c2.401,4.159,5.714,7.793,9.357,9.896l126.5,73.034c7.287,4.208,19.213,4.208,26.5,0Z" fill="#fff"/><path d="M302.108,86.087c-2.402-4.16-5.715-7.793-9.358-9.897L166.25,3.156c-7.287-4.208-19.213-4.208-26.5,0L13.25,76.19C5.962,80.397,0,90.725,0,99.14v146.069c0,4.208,1.491,8.894,3.893,13.053L153,172.175L302.108,86.087Z" fill="#fff"/><g><path d="M153,274.175c-56.243,0-102-45.757-102-102s45.757-102,102-102c36.292,0,70.139,19.53,88.331,50.968l-44.143,25.544c-9.105-15.736-26.038-25.512-44.188-25.512-28.122,0-51,22.878-51,51c0,28.121,22.878,51,51,51c18.152,0,35.085-9.776,44.191-25.515l44.143,25.543c-18.192,31.441-52.04,50.972-88.334,50.972Z" fill="#3c3c3c"/></g><g><polygon points="255,166.508 243.666,166.508 243.666,155.175 232.334,155.175 232.334,166.508 221,166.508 221,177.841 232.334,177.841 232.334,189.175 243.666,189.175 243.666,177.841 255,177.841" fill="#3c3c3c"/></g><g><polygon points="297.5,166.508 286.166,166.508 286.166,155.175 274.834,155.175 274.834,166.508 263.5,166.508 263.5,177.841 274.834,177.841 274.834,189.175 286.166,189.175 286.166,177.841 297.5,177.841" fill="#3c3c3c"/></g></g></svg>
